<svg width="14" height="14" viewBox="0 0 14 14" fill="none" xmlns="http://www.w3.org/2000/svg">
<path d="M7.14434 8.40005L2.24434 13.3C2.061 13.4834 1.82767 13.575 1.54434 13.575C1.261 13.575 1.02767 13.4834 0.844336 13.3C0.661003 13.1167 0.569336 12.8834 0.569336 12.6C0.569336 12.3167 0.661003 12.0834 0.844336 11.9L5.74434 7.00005L0.844336 2.10005C0.661003 1.91672 0.569336 1.68338 0.569336 1.40005C0.569336 1.11672 0.661003 0.883382 0.844336 0.700049C1.02767 0.516715 1.261 0.425049 1.54434 0.425049C1.82767 0.425049 2.061 0.516715 2.24434 0.700049L7.14434 5.60005L12.0443 0.700049C12.2277 0.516715 12.461 0.425049 12.7443 0.425049C13.0277 0.425049 13.261 0.516715 13.4443 0.700049C13.6277 0.883382 13.7193 1.11672 13.7193 1.40005C13.7193 1.68338 13.6277 1.91672 13.4443 2.10005L8.54434 7.00005L13.4443 11.9C13.6277 12.0834 13.7193 12.3167 13.7193 12.6C13.7193 12.8834 13.6277 13.1167 13.4443 13.3C13.261 13.4834 13.0277 13.575 12.7443 13.575C12.461 13.575 12.2277 13.4834 12.0443 13.3L7.14434 8.40005Z" fill="#2A3647"/>
</svg>
