<svg width="21" height="8" viewBox="0 0 21 8" fill="none" xmlns="http://www.w3.org/2000/svg">
<g clip-path="url(#clip0_156_928)">
<path d="M19.7596 7.91693H1.95136C1.66071 7.91693 1.38197 7.80063 1.17645 7.59362C0.970928 7.3866 0.855469 7.10584 0.855469 6.81308C0.855469 6.52032 0.970928 6.23955 1.17645 6.03254C1.38197 5.82553 1.66071 5.70923 1.95136 5.70923H19.7596C20.0502 5.70923 20.329 5.82553 20.5345 6.03254C20.74 6.23955 20.8555 6.52032 20.8555 6.81308C20.8555 7.10584 20.74 7.3866 20.5345 7.59362C20.329 7.80063 20.0502 7.91693 19.7596 7.91693Z" fill="#FFA800"/>
<path d="M19.7596 2.67376H1.95136C1.66071 2.67376 1.38197 2.55746 1.17645 2.35045C0.970928 2.14344 0.855469 1.86267 0.855469 1.56991C0.855469 1.27715 0.970928 0.996386 1.17645 0.789374C1.38197 0.582363 1.66071 0.466064 1.95136 0.466064L19.7596 0.466064C20.0502 0.466064 20.329 0.582363 20.5345 0.789374C20.74 0.996386 20.8555 1.27715 20.8555 1.56991C20.8555 1.86267 20.74 2.14344 20.5345 2.35045C20.329 2.55746 20.0502 2.67376 19.7596 2.67376Z" fill="#FFA800"/>
</g>
<defs>
<clipPath id="clip0_156_928">
<rect width="20" height="7.45098" fill="white" transform="translate(0.855469 0.466064)"/>
</clipPath>
</defs>
</svg>
