<svg width="21" height="16" viewBox="0 0 21 16" fill="none" xmlns="http://www.w3.org/2000/svg">
<path d="M10.8555 9.69779C10.6209 9.69819 10.3923 9.62335 10.2035 9.48427L1.30038 2.91453C1.18454 2.82898 1.0867 2.72146 1.01245 2.59812C0.938193 2.47478 0.888977 2.33803 0.867609 2.19569C0.824455 1.90821 0.897354 1.61537 1.07027 1.3816C1.24319 1.14782 1.50196 0.992265 1.78965 0.949143C2.07734 0.906021 2.3704 0.978866 2.60434 1.15165L10.8555 7.23414L19.1066 1.15165C19.2224 1.0661 19.354 1.00418 19.4938 0.969432C19.6336 0.934685 19.7788 0.927791 19.9213 0.949143C20.0637 0.970495 20.2006 1.01967 20.324 1.09388C20.4474 1.16808 20.555 1.26584 20.6407 1.3816C20.7263 1.49735 20.7883 1.62882 20.823 1.7685C20.8578 1.90818 20.8647 2.05334 20.8433 2.19569C20.822 2.33803 20.7727 2.47478 20.6985 2.59812C20.6242 2.72146 20.5264 2.82898 20.4106 2.91453L11.5075 9.48427C11.3186 9.62335 11.0901 9.69819 10.8555 9.69779Z" fill="#7AE229"/>
<path d="M10.8555 15.4463C10.6209 15.4467 10.3923 15.3719 10.2035 15.2328L1.30038 8.66307C1.06644 8.49028 0.910763 8.2317 0.867609 7.94422C0.824455 7.65674 0.897354 7.3639 1.07027 7.13013C1.24319 6.89636 1.50196 6.7408 1.78965 6.69768C2.07734 6.65456 2.3704 6.7274 2.60434 6.90019L10.8555 12.9827L19.1066 6.90019C19.3405 6.7274 19.6336 6.65456 19.9213 6.69768C20.209 6.7408 20.4678 6.89636 20.6407 7.13013C20.8136 7.3639 20.8865 7.65674 20.8433 7.94422C20.8002 8.2317 20.6445 8.49028 20.4106 8.66307L11.5075 15.2328C11.3186 15.3719 11.0901 15.4467 10.8555 15.4463Z" fill="#7AE229"/>
</svg>
